<svg id="Layer_1" data-name="Layer 1" xmlns="http://www.w3.org/2000/svg" viewBox="0 0 279.47 36.75"><defs><style>.cls-1{fill:#22428f;}.cls-2{fill:#3eb449;}</style></defs><title>SFL-logo</title><path class="cls-1" d="M16.64,8.53a2.25,2.25,0,0,1-.74.12,1.12,1.12,0,0,1-.77-.22A1,1,0,0,1,14.82,8,6.79,6.79,0,0,0,12.5,4.8a6.59,6.59,0,0,0-3.79-1,5.39,5.39,0,0,0-3.17.92,3.16,3.16,0,0,0-1.3,2.78,2.92,2.92,0,0,0,1,2.31,9.62,9.62,0,0,0,2.49,1.54c1,.44,2.07.87,3.23,1.28a16,16,0,0,1,3.22,1.56,8.28,8.28,0,0,1,2.49,2.37,6.38,6.38,0,0,1,1,3.69,8.31,8.31,0,0,1-.5,2.88,6.54,6.54,0,0,1-1.6,2.47,7.9,7.9,0,0,1-2.76,1.71,11.11,11.11,0,0,1-4,.64,17.4,17.4,0,0,1-4.59-.55,19.38,19.38,0,0,1-3.34-1.2C.78,25.11.65,24,.49,22.94s-.36-2.12-.57-3.13a2.29,2.29,0,0,1,.9-.16,1.22,1.22,0,0,1,.7.17,1.4,1.4,0,0,1,.39.61A14.09,14.09,0,0,0,3,23a6.52,6.52,0,0,0,1.44,1.75,5.13,5.13,0,0,0,1.89,1A9.11,9.11,0,0,0,8.83,26a5.74,5.74,0,0,0,2.06-.33,4.09,4.09,0,0,0,1.4-.88,3.45,3.45,0,0,0,.81-1.29A4.18,4.18,0,0,0,13.38,22a3.52,3.52,0,0,0-1-2.62,7.77,7.77,0,0,0-2.37-1.6c-.94-.43-2-.83-3.07-1.21a14.4,14.4,0,0,1-3.07-1.44,7.74,7.74,0,0,1-2.37-2.26,6.41,6.41,0,0,1-1-3.72,7.35,7.35,0,0,1,.57-2.9A6.57,6.57,0,0,1,2.8,3.92,8.23,8.23,0,0,1,5.42,2.35a9.88,9.88,0,0,1,3.52-.59,16.07,16.07,0,0,1,3.29.35A24.81,24.81,0,0,1,16,3.28c.05.78.14,1.65.25,2.62S16.49,7.75,16.64,8.53Z" transform="translate(0.08 -0.28)"/><path class="cls-1" d="M25.28,27.5c-1,0-1.88,0-2.61.06l-2.1.14a4,4,0,0,1-.08-.74.44.44,0,0,1,.14-.37,1.11,1.11,0,0,1,.29-.14,5.83,5.83,0,0,0,1.71-.5.93.93,0,0,0,.47-.86V14.83A3.37,3.37,0,0,0,22.71,13c-.26-.42-.87-.66-1.83-.74a.55.55,0,0,1-.5-.62v-.29a.72.72,0,0,1,.07-.33l.68,0,1,0,1-.06.93-.08c.65-.08,1.27-.18,1.87-.31a6.72,6.72,0,0,1,1.2-.19c.42,0,.62.19.62.58a6.91,6.91,0,0,1-.11,1.13A12,12,0,0,0,27.49,14V25.09A.91.91,0,0,0,28,26a6.24,6.24,0,0,0,1.67.5.48.48,0,0,1,.43.51v.39a.82.82,0,0,1-.08.35l-2.1-.14Q26.8,27.5,25.28,27.5ZM22.44,4.68a2.76,2.76,0,0,1,.79-2,2.94,2.94,0,0,1,4,0,2.79,2.79,0,0,1,.78,2,2.79,2.79,0,0,1-.78,2,2.94,2.94,0,0,1-4,0A2.76,2.76,0,0,1,22.44,4.68Z" transform="translate(0.08 -0.28)"/><path class="cls-1" d="M50.55,14.17a12.85,12.85,0,0,1,2.86-2.78,5.3,5.3,0,0,1,3.05-1q4.86,0,4.86,5.28v9.49a.89.89,0,0,0,.47.82,5.83,5.83,0,0,0,1.71.5.48.48,0,0,1,.43.51v.39a.82.82,0,0,1-.08.35l-2-.14c-.68,0-1.52-.06-2.53-.06s-1.64,0-2.35.06l-2.12.14a3.28,3.28,0,0,1-.08-.74.44.44,0,0,1,.13-.37,1,1,0,0,1,.3-.14A3.25,3.25,0,0,0,56.6,26a1.05,1.05,0,0,0,.33-.86V17.51a7.67,7.67,0,0,0-.45-3.17,1.69,1.69,0,0,0-1.65-.87,4.07,4.07,0,0,0-3,1.18,4.75,4.75,0,0,0-1.2,3.52v7A1,1,0,0,0,51,26a3.3,3.3,0,0,0,1.36.46.48.48,0,0,1,.43.51v.39a.82.82,0,0,1-.08.35l-1.87-.14c-.62,0-1.35-.06-2.18-.06s-1.64,0-2.35.06l-2.12.14a4,4,0,0,1-.08-.74.44.44,0,0,1,.14-.37,1.11,1.11,0,0,1,.29-.14A3.25,3.25,0,0,0,45.94,26a1.05,1.05,0,0,0,.33-.86V17.51a7.89,7.89,0,0,0-.44-3.17,1.69,1.69,0,0,0-1.66-.87,4,4,0,0,0-3,1.18A4.71,4.71,0,0,0,40,18.17v7a1,1,0,0,0,.35.86,3.42,3.42,0,0,0,1.36.46.47.47,0,0,1,.43.51v.39a.82.82,0,0,1-.08.35L40,27.56c-.72,0-1.5-.06-2.33-.06q-1.52,0-2.55.06l-2,.14A4,4,0,0,1,33,27a.44.44,0,0,1,.14-.37,1.11,1.11,0,0,1,.29-.14,5.83,5.83,0,0,0,1.71-.5.93.93,0,0,0,.47-.86V14.83A3.09,3.09,0,0,0,35.19,13a2.31,2.31,0,0,0-1.79-.74.57.57,0,0,1-.5-.62v-.29a.72.72,0,0,1,.07-.33l.68,0,1,0,1-.06.93-.08c.65-.08,1.27-.18,1.87-.31a6.86,6.86,0,0,1,1.2-.19c.42,0,.63.19.63.58a7.12,7.12,0,0,1-.12,1.13A12,12,0,0,0,40,14a11.73,11.73,0,0,1,2.74-2.64,5.37,5.37,0,0,1,3.06-1Q49.89,10.36,50.55,14.17Z" transform="translate(0.08 -0.28)"/><path class="cls-1" d="M68.36,14.28a2.63,2.63,0,0,0-.29-1.38c-.2-.29-.73-.5-1.62-.6q-.54-.12-.54-.54v-.35a.78.78,0,0,1,.08-.35l.66,0,.89,0,1-.06a6.77,6.77,0,0,0,.87-.12c.6-.08,1.17-.17,1.71-.29a6.06,6.06,0,0,1,1.13-.17.53.53,0,0,1,.45.15.89.89,0,0,1,.09.43v2.64a9.47,9.47,0,0,1,2.57-2.35,6,6,0,0,1,3.19-.87,7,7,0,0,1,2.82.56,6.64,6.64,0,0,1,2.27,1.63,7.55,7.55,0,0,1,1.52,2.63,10.7,10.7,0,0,1,.54,3.54,8.89,8.89,0,0,1-.83,3.89,10,10,0,0,1-2.12,2.91,9.2,9.2,0,0,1-2.8,1.83A7.79,7.79,0,0,1,77,28a12.25,12.25,0,0,1-2.08-.17,14.59,14.59,0,0,1-2.16-.61v6.46a3.06,3.06,0,0,0,.1.8,1,1,0,0,0,.45.56,3.36,3.36,0,0,0,1.09.41c.49.11,1.16.22,2,.33a.52.52,0,0,1,.5.58,2.24,2.24,0,0,1-.07.7c-.68-.05-1.53-.1-2.57-.13s-2-.06-3-.06-1.72,0-2.59.06S67,37,66.3,37a3.89,3.89,0,0,1-.08-.74.44.44,0,0,1,.14-.37.76.76,0,0,1,.29-.13,4.5,4.5,0,0,0,1.4-.51,1,1,0,0,0,.31-.82Zm4.39,10.11a5.47,5.47,0,0,0,4,1.87,3.2,3.2,0,0,0,3-1.77,9.86,9.86,0,0,0,1-4.8,15.34,15.34,0,0,0-.23-2.78,7.5,7.5,0,0,0-.74-2.26,4.28,4.28,0,0,0-1.3-1.51,3.16,3.16,0,0,0-1.89-.57,2.56,2.56,0,0,0-1.42.45A5,5,0,0,0,74,14.19a6.25,6.25,0,0,0-.88,1.61,5.14,5.14,0,0,0-.33,1.79Z" transform="translate(0.08 -0.28)"/><path class="cls-1" d="M97,27.7c-.68-.05-1.45-.1-2.31-.14S93,27.5,92.24,27.5s-1.66,0-2.47.06-1.57.09-2.24.14a1.91,1.91,0,0,1-.06-.33c0-.12,0-.25,0-.41a.44.44,0,0,1,.14-.37,1.11,1.11,0,0,1,.29-.14,5.83,5.83,0,0,0,1.71-.5.93.93,0,0,0,.47-.86V4.72A3.08,3.08,0,0,0,89.63,3a2.38,2.38,0,0,0-1.79-.72.58.58,0,0,1-.5-.62V1.3A.61.61,0,0,1,87.41,1h.68l1,0,1-.06L91,.79c.65-.08,1.27-.18,1.87-.31a7.07,7.07,0,0,1,1.2-.2c.42,0,.62.2.62.59A6.61,6.61,0,0,1,94.57,2a11.68,11.68,0,0,0-.12,1.92V25.09a.93.93,0,0,0,.47.86,5.83,5.83,0,0,0,1.71.5.48.48,0,0,1,.43.51A2.37,2.37,0,0,1,97,27.7Z" transform="translate(0.08 -0.28)"/><path class="cls-1" d="M114,23.93a1.08,1.08,0,0,1,.62-.28.79.79,0,0,1,.44.18,2,2,0,0,1,.53.68,9.43,9.43,0,0,1-3.48,2.62,11.77,11.77,0,0,1-4.65.84,9.26,9.26,0,0,1-3-.49A7.41,7.41,0,0,1,101.84,26,7.72,7.72,0,0,1,100,23.38a8.8,8.8,0,0,1-.72-3.73,8.72,8.72,0,0,1,.84-3.87,10,10,0,0,1,2.12-2.94A9.5,9.5,0,0,1,105,11a7.42,7.42,0,0,1,2.92-.64,7.19,7.19,0,0,1,5.69,2.17,8.66,8.66,0,0,1,1.93,6,.25.25,0,0,1-.28.28l-11.12.46a7.08,7.08,0,0,0,1.36,4.65,5,5,0,0,0,4.07,1.61,7.34,7.34,0,0,0,2.36-.39A6,6,0,0,0,114,23.93Zm-6.64-11.86a2.82,2.82,0,0,0-2.42,1.3,7.35,7.35,0,0,0-.9,4.1l6-.27c.38,0,.58-.19.58-.51a6.66,6.66,0,0,0-.2-1.55,5.05,5.05,0,0,0-.59-1.5,4,4,0,0,0-1-1.13A2.48,2.48,0,0,0,107.34,12.07Z" transform="translate(0.08 -0.28)"/><path class="cls-1" d="M121.4,5.15a1.59,1.59,0,0,0-.1-.61.9.9,0,0,0-.41-.44,3.32,3.32,0,0,0-.85-.34c-.37-.09-.83-.18-1.4-.29-.26-.07-.39-.31-.39-.7V2.4a.88.88,0,0,1,.08-.37c1.11.08,2.1.13,3,.16s1.58,0,2.18,0h8c1.19,0,2.21,0,3-.12S135.89,2,136.17,2a.66.66,0,0,1,.63.35A5.49,5.49,0,0,1,137,3.49a13.74,13.74,0,0,0,.27,1.73c.08.44.17.87.28,1.29A15.6,15.6,0,0,0,138,8a1.84,1.84,0,0,1-.41.16,1.72,1.72,0,0,1-.48.08.6.6,0,0,1-.59-.35,15.06,15.06,0,0,0-.91-1.73,4.5,4.5,0,0,0-1-1.17,3.53,3.53,0,0,0-1.32-.64,7.53,7.53,0,0,0-1.85-.2H126.3V14h5.36a1,1,0,0,0,1-.64,8,8,0,0,0,.48-1.93.66.66,0,0,1,.74-.5l.37,0a1.34,1.34,0,0,1,.37.06c-.05.59-.1,1.29-.14,2.08s-.05,1.46-.05,2,0,1,0,1.65.08,1.36.16,2.16a.73.73,0,0,1-.35.1l-.35,0a.69.69,0,0,1-.78-.55,6.32,6.32,0,0,0-.46-1.88,1,1,0,0,0-1-.64H126.3v8.71a.84.84,0,0,0,.27.64,2.26,2.26,0,0,0,.74.43,6.42,6.42,0,0,0,1.09.27l1.32.21c.31,0,.47.25.47.66,0,.08,0,.21,0,.39s0,.32-.06.43l-1.09,0c-.36,0-.73,0-1.09-.06-.67-.05-1.39-.08-2.16-.1l-2.27,0-1.19,0-1.34.06-1.38.06q-.68,0-1.26.06a.83.83,0,0,1-.08-.41v-.37c0-.39.13-.59.39-.62a17.5,17.5,0,0,0,2-.6,1.07,1.07,0,0,0,.74-1.07Z" transform="translate(0.08 -0.28)"/><path class="cls-1" d="M154.45,26.3c.39,0,.58.32.58,1a3.65,3.65,0,0,1-1.26.53,7.25,7.25,0,0,1-1.53.17,3.84,3.84,0,0,1-2.69-.85,3.31,3.31,0,0,1-1.09-2,4.65,4.65,0,0,1-2.08,2.2,6.78,6.78,0,0,1-3,.64,13.5,13.5,0,0,1-1.81-.13,5.84,5.84,0,0,1-1.83-.57,4.18,4.18,0,0,1-1.42-1.2,3.43,3.43,0,0,1-.58-2.07,4.09,4.09,0,0,1,.74-2.45,6.53,6.53,0,0,1,1.85-1.69,11.17,11.17,0,0,1,2.43-1.09c.88-.27,1.71-.49,2.49-.68l1.05-.25.85-.21a.87.87,0,0,0,.55-.33,3.34,3.34,0,0,0,.11-1.11,6.46,6.46,0,0,0-.58-3.05,2.06,2.06,0,0,0-2-1.07,1.83,1.83,0,0,0-1.62.7,7.59,7.59,0,0,0-.91,2.21,1,1,0,0,1-.68.65c-.38.14-.85.29-1.42.44-.31.08-.63.14-.95.2a5.85,5.85,0,0,1-.88.07.3.3,0,0,1-.31-.17,2,2,0,0,1-.08-.68,3.12,3.12,0,0,1,.72-1.91,7.4,7.4,0,0,1,1.81-1.65,10.15,10.15,0,0,1,2.39-1.15,8.2,8.2,0,0,1,2.51-.42,12.3,12.3,0,0,1,2.61.25,5,5,0,0,1,2,.89,4.33,4.33,0,0,1,1.3,1.71,6.86,6.86,0,0,1,.47,2.73v6.83q0,1.35.06,2a2.46,2.46,0,0,0,.21.93,1.15,1.15,0,0,0,1.09.7,3.55,3.55,0,0,0,.52,0A2,2,0,0,1,154.45,26.3ZM147.76,19l-.85.15a9.92,9.92,0,0,0-1.67.45,4.27,4.27,0,0,0-1.35.78,3.49,3.49,0,0,0-.89,1.2,4.14,4.14,0,0,0-.33,1.73,3.5,3.5,0,0,0,.48,2.12,1.71,1.71,0,0,0,1.42.61A2.83,2.83,0,0,0,146.91,25a4.82,4.82,0,0,0,.85-3Z" transform="translate(0.08 -0.28)"/><path class="cls-1" d="M166.74,15.57c-.36,0-.57-.17-.62-.43a3.52,3.52,0,0,0-1.25-2.33,3.88,3.88,0,0,0-2.45-.74,2.84,2.84,0,0,0-2,.66,2.06,2.06,0,0,0-.7,1.55,2.37,2.37,0,0,0,.12.78,1.53,1.53,0,0,0,.48.66,4.18,4.18,0,0,0,1,.6,17.48,17.48,0,0,0,1.79.65,19.62,19.62,0,0,1,2.34.83,6.83,6.83,0,0,1,1.71,1.07,4.34,4.34,0,0,1,1.07,1.5,5.44,5.44,0,0,1,.37,2.08,6.37,6.37,0,0,1-.37,2.14,4.66,4.66,0,0,1-1.19,1.77A5.66,5.66,0,0,1,165,27.54a9.15,9.15,0,0,1-3,.43,17.4,17.4,0,0,1-2.85-.27,9.78,9.78,0,0,1-2.94-1c0-.68-.1-1.4-.14-2.16s-.05-1.52-.05-2.28h.5a1.84,1.84,0,0,1,.74.14.54.54,0,0,1,.35.45,3.43,3.43,0,0,0,1.28,2.51,5,5,0,0,0,3.11.87,3.72,3.72,0,0,0,2.22-.62,1.94,1.94,0,0,0,.86-1.64,2.06,2.06,0,0,0-.76-1.59,8.14,8.14,0,0,0-2.86-1.28,8.25,8.25,0,0,1-4-2.16,4.8,4.8,0,0,1-1.14-3.21A5,5,0,0,1,158,11.83a6.22,6.22,0,0,1,4.3-1.47,11.37,11.37,0,0,1,2.93.37,11.86,11.86,0,0,1,2.28.79c0,.21.05.49.08.84s.05.72.07,1.13.05.79.06,1.16,0,.7,0,1Z" transform="translate(0.08 -0.28)"/><path class="cls-1" d="M181.32,25a1.33,1.33,0,0,1,.66-.24c.26,0,.53.28.82.82a9.59,9.59,0,0,1-2.86,1.94,7,7,0,0,1-2.59.47,5.64,5.64,0,0,1-1.49-.19,3.4,3.4,0,0,1-1.31-.7,3.61,3.61,0,0,1-.93-1.38,6.19,6.19,0,0,1-.35-2.24V12.77h-2.33v-1a1,1,0,0,1,.08-.38c0-.16.2-.24.46-.24a3.45,3.45,0,0,0,2-.6,4.15,4.15,0,0,0,1.43-1.81,5.81,5.81,0,0,1,1-1.44,1.48,1.48,0,0,1,1-.54h.81v4h4.55a4.45,4.45,0,0,1-.17,1.6.66.66,0,0,1-.64.35h-3.74v9.6a17.5,17.5,0,0,0,.08,1.85,3.05,3.05,0,0,0,.26,1,.84.84,0,0,0,.46.45,2.33,2.33,0,0,0,.68.09,3,3,0,0,0,1-.21A5.41,5.41,0,0,0,181.32,25Z" transform="translate(0.08 -0.28)"/><path class="cls-2" d="M194.11,24.2c0,.54.35.91,1,1.09a15.56,15.56,0,0,0,3.46.27h1.48a6,6,0,0,0,1.69-.21,3.41,3.41,0,0,0,1.27-.72,5.35,5.35,0,0,0,1-1.31,13.54,13.54,0,0,0,.87-1.92c.08-.21.28-.31.59-.31a1.16,1.16,0,0,1,.46.12l.55.23q-.32,1.24-.57,2.7c-.17,1-.31,1.93-.44,2.86,0,.31-.11.5-.26.58a.88.88,0,0,1-.44.12c-.21,0-.5,0-.88,0s-.78-.05-1.22-.06l-1.35-.06c-.45,0-.84,0-1.18,0h-8.83q-1.12,0-2.58.06c-1,0-1.85.09-2.63.14a1,1,0,0,1-.08-.41v-.37c0-.39.13-.59.39-.62a9.35,9.35,0,0,0,2.12-.58,1.11,1.11,0,0,0,.64-1.09V5.15a2.39,2.39,0,0,0-.07-.65,1,1,0,0,0-.32-.44,1.88,1.88,0,0,0-.71-.33,11.14,11.14,0,0,0-1.31-.26q-.39-.11-.39-.66V2.46a1.22,1.22,0,0,1,.08-.43c.83.06,1.71.1,2.65.14s1.76.06,2.48.06l1.25,0,1.46,0c.5,0,1,0,1.51-.06L197.22,2a2.79,2.79,0,0,1,.06.43c0,.16,0,.27,0,.35q0,.56-.39.66a6.06,6.06,0,0,0-2.23.61,1.25,1.25,0,0,0-.57,1.14Z" transform="translate(0.08 -0.28)"/><path class="cls-2" d="M207.22,19.18a8.87,8.87,0,0,1,.68-3.52A8.32,8.32,0,0,1,212.66,11a9.89,9.89,0,0,1,3.66-.66,10.11,10.11,0,0,1,3.73.66,8.61,8.61,0,0,1,2.88,1.84,8.12,8.12,0,0,1,1.84,2.8,9.42,9.42,0,0,1,.65,3.52,9,9,0,0,1-.68,3.52,8.21,8.21,0,0,1-1.91,2.78,8.84,8.84,0,0,1-2.9,1.83,9.83,9.83,0,0,1-3.65.66,10.13,10.13,0,0,1-3.74-.66,8.41,8.41,0,0,1-2.85-1.83,8,8,0,0,1-1.83-2.78A9.38,9.38,0,0,1,207.22,19.18Zm4.9-.77a11.77,11.77,0,0,0,1.18,5.71,3.72,3.72,0,0,0,3.41,2.14,3,3,0,0,0,2.93-1.65,10.12,10.12,0,0,0,.88-4.65,11.85,11.85,0,0,0-1.21-5.72,3.71,3.71,0,0,0-3.38-2.17A3,3,0,0,0,213,13.76,10.3,10.3,0,0,0,212.12,18.41Z" transform="translate(0.08 -0.28)"/><path class="cls-2" d="M243.34,26.3c.39,0,.59.32.59,1a3.8,3.8,0,0,1-1.27.53,7.17,7.17,0,0,1-1.53.17,3.84,3.84,0,0,1-2.69-.85,3.31,3.31,0,0,1-1.09-2,4.65,4.65,0,0,1-2.08,2.2,6.78,6.78,0,0,1-3.05.64,13.5,13.5,0,0,1-1.81-.13,5.84,5.84,0,0,1-1.83-.57,4.06,4.06,0,0,1-1.41-1.2,3.37,3.37,0,0,1-.59-2.07,4.09,4.09,0,0,1,.74-2.45,6.53,6.53,0,0,1,1.85-1.69,11.17,11.17,0,0,1,2.43-1.09c.88-.27,1.71-.49,2.49-.68l1-.25.85-.21a.87.87,0,0,0,.55-.33,3.34,3.34,0,0,0,.11-1.11,6.46,6.46,0,0,0-.58-3.05,2.06,2.06,0,0,0-2-1.07,1.83,1.83,0,0,0-1.62.7,7.59,7.59,0,0,0-.91,2.21,1,1,0,0,1-.68.65c-.38.14-.85.29-1.42.44-.31.08-.63.14-1,.2a5.85,5.85,0,0,1-.88.07.3.3,0,0,1-.31-.17,2,2,0,0,1-.08-.68,3.12,3.12,0,0,1,.72-1.91,7.4,7.4,0,0,1,1.81-1.65,10.15,10.15,0,0,1,2.39-1.15,8.2,8.2,0,0,1,2.51-.42,12.3,12.3,0,0,1,2.61.25,5,5,0,0,1,2,.89,4.24,4.24,0,0,1,1.3,1.71,6.86,6.86,0,0,1,.47,2.73v6.83q0,1.35.06,2a2.91,2.91,0,0,0,.21.93,1.16,1.16,0,0,0,1.09.7,3.55,3.55,0,0,0,.52,0A2,2,0,0,1,243.34,26.3ZM236.65,19l-.85.15a9.92,9.92,0,0,0-1.67.45,4.27,4.27,0,0,0-1.35.78,3.49,3.49,0,0,0-.89,1.2,4.14,4.14,0,0,0-.33,1.73,3.42,3.42,0,0,0,.49,2.12,1.68,1.68,0,0,0,1.41.61A2.83,2.83,0,0,0,235.8,25a4.82,4.82,0,0,0,.85-3Z" transform="translate(0.08 -0.28)"/><path class="cls-2" d="M262.59,25.13a.94.94,0,0,0,.47.84,4.89,4.89,0,0,0,1.71.48,1.11,1.11,0,0,1,.29.14.44.44,0,0,1,.13.37c0,.16,0,.29,0,.41l-.06.33-2-.14c-.68,0-1.52-.06-2.53-.06-.83,0-1.61,0-2.33.06l-2.11.14a2.46,2.46,0,0,1-.07-.74.47.47,0,0,1,.43-.51,3.42,3.42,0,0,0,1.36-.46,1,1,0,0,0,.35-.86V17.51a6.23,6.23,0,0,0-.57-3.17,2,2,0,0,0-1.81-.87,4.18,4.18,0,0,0-3,1.18,4.65,4.65,0,0,0-1.24,3.52v7a1,1,0,0,0,.35.86,3.3,3.3,0,0,0,1.36.46.47.47,0,0,1,.42.51,2.46,2.46,0,0,1-.07.74l-2.1-.14q-1.1-.06-2.34-.06c-1,0-1.86,0-2.54.06l-2,.14c0-.11,0-.22,0-.33a2.55,2.55,0,0,1,0-.41.44.44,0,0,1,.13-.37,1.11,1.11,0,0,1,.29-.14,5.83,5.83,0,0,0,1.71-.5.91.91,0,0,0,.47-.86V14.83a3.09,3.09,0,0,0-.43-1.79A2.29,2.29,0,0,0,245,12.3a.58.58,0,0,1-.5-.62v-.29a.62.62,0,0,1,.08-.33l.68,0,1,0,1-.06.93-.08c.65-.08,1.27-.18,1.87-.31a6.92,6.92,0,0,1,1.21-.19c.41,0,.62.19.62.58a7.12,7.12,0,0,1-.12,1.13,12.26,12.26,0,0,0-.11,1.94,11.08,11.08,0,0,1,2.76-2.64,5.55,5.55,0,0,1,3.15-1,5.13,5.13,0,0,1,3.73,1.32,5.27,5.27,0,0,1,1.36,4Z" transform="translate(0.08 -0.28)"/><path class="cls-2" d="M277.52,15.57c-.36,0-.57-.17-.62-.43a3.52,3.52,0,0,0-1.25-2.33,3.85,3.85,0,0,0-2.44-.74,2.85,2.85,0,0,0-2,.66,2.09,2.09,0,0,0-.7,1.55,2.37,2.37,0,0,0,.12.78,1.48,1.48,0,0,0,.49.66,4,4,0,0,0,1,.6,16.63,16.63,0,0,0,1.79.65,19.42,19.42,0,0,1,2.33.83A6.83,6.83,0,0,1,278,18.87a4.21,4.21,0,0,1,1.07,1.5,5.26,5.26,0,0,1,.37,2.08,6.14,6.14,0,0,1-.37,2.14,4.55,4.55,0,0,1-1.19,1.77,5.66,5.66,0,0,1-2.06,1.18,9.12,9.12,0,0,1-3,.43,17.51,17.51,0,0,1-2.86-.27,9.78,9.78,0,0,1-2.94-1c-.05-.68-.09-1.4-.13-2.16s-.06-1.52-.06-2.28h.5a1.81,1.81,0,0,1,.74.14.53.53,0,0,1,.35.45,3.44,3.44,0,0,0,1.29,2.51,5,5,0,0,0,3.11.87,3.68,3.68,0,0,0,2.21-.62,1.94,1.94,0,0,0,.86-1.64,2,2,0,0,0-.76-1.59,8.05,8.05,0,0,0-2.86-1.28,8.17,8.17,0,0,1-4-2.16,4.75,4.75,0,0,1-1.15-3.21,5,5,0,0,1,1.65-3.93,6.25,6.25,0,0,1,4.3-1.47,11.5,11.5,0,0,1,2.94.37,12,12,0,0,1,2.27.79c0,.21.05.49.08.84s.05.72.08,1.13,0,.79.05,1.16,0,.7,0,1Z" transform="translate(0.08 -0.28)"/></svg>