<svg id="Layer_1" data-name="Layer 1" xmlns="http://www.w3.org/2000/svg" viewBox="0 0 152 129"><defs><style>.cls-1{fill:#fefefe;}.cls-2{fill:#36b544;}.cls-3{fill:#37b545;}</style></defs><ellipse class="cls-1" cx="76" cy="64.5" rx="107.48" ry="91.22"/><path class="cls-2" d="M135.91,141.41c-4.55,4.28-10.65,5.11-16.46,5.88-13.89,1.84-27.85,2-41.66-.84-4.49-.91-9.18-1.72-12.29-5.49C63.17,119.6,70,104.07,85.11,96.35c10.44,7.34,21.12,7.29,31.86-.15C134.63,106.33,138.09,122.35,135.91,141.41Z" transform="translate(-25.12 -23.48)"/><path class="cls-2" d="M29.56,112.77C27.72,90,33.6,76.59,49.1,67.49c8.39,6.25,17.6,7.59,27.88,2.66-2,8.68-.27,16.16,5.06,23-10.06,6-16.52,14.78-19.76,26.56C50.68,119.46,39.29,119.17,29.56,112.77Z" transform="translate(-25.12 -23.48)"/><path class="cls-2" d="M171.93,113c-9.62,6.15-20.8,6.46-32.34,6.7A43.34,43.34,0,0,0,120,93.21c4.58-6.84,7.3-14,4.24-23.15,10.14,4.62,19.58,4.26,28.11-2.47C167,75,174.68,89.32,171.93,113Z" transform="translate(-25.12 -23.48)"/><path class="cls-3" d="M65,27.58a21.08,21.08,0,0,1,20.82,21A21.11,21.11,0,0,1,65.06,69.21a21.19,21.19,0,0,1-20.84-21A21.16,21.16,0,0,1,65,27.58Z" transform="translate(-25.12 -23.48)"/><path class="cls-3" d="M157.3,48.2c.8,9-6.46,20.43-20.23,21-11.46.44-21-9.24-21-20.83A20.9,20.9,0,0,1,136.7,27.58,20.61,20.61,0,0,1,157.3,48.2Z" transform="translate(-25.12 -23.48)"/><path class="cls-2" d="M100.76,97.62A20.52,20.52,0,0,1,80.13,77.07a20.81,20.81,0,0,1,21.15-20.64c11.48.1,20.27,9.22,20.17,20.91S112.53,97.66,100.76,97.62Z" transform="translate(-25.12 -23.48)"/><path class="cls-1" d="M84.73,100.46c10.93,6.1,21.67,5.83,32.69-.11,13.91,9.38,17.17,23.05,15.68,38.62-8.49,8.42-54,8.83-64.47.25C66,121.87,74,105.85,84.73,100.46Z" transform="translate(-25.12 -23.48)"/><path class="cls-1" d="M73,75.62c-.11,6,1,11.49,3.94,16.32-12.28,12.18-13.14,13.39-17.45,24.61-9.3-.23-18.5-1.31-26.78-5.67-1.87-18,3.92-31.71,16.19-39.14C57.89,76.42,61.26,77,73,75.62Z" transform="translate(-25.12 -23.48)"/><path class="cls-1" d="M142.34,116.6c-3.13-10-9-17.85-17.42-24.25a34.75,34.75,0,0,0,4-16.77c8.51,1.4,16.65,1.06,23.8-3.91,12.62,7.22,18.2,20.74,16.12,39.34C160.7,115.28,151.73,116.13,142.34,116.6Z" transform="translate(-25.12 -23.48)"/><path class="cls-1" d="M65.28,65.83c-9.11.16-17.84-8.28-17.93-17.34-.09-8.63,9-17.76,17.69-17.8s17.66,9,17.6,17.81S74.31,65.67,65.28,65.83Z" transform="translate(-25.12 -23.48)"/><path class="cls-1" d="M154.2,48.31c.05,9.27-8.29,17.68-17.48,17.64-8.81,0-17.76-8.4-17.42-17.25.41-10.41,6.91-17.48,17.29-17.73C145.86,30.74,153.47,37.14,154.2,48.31Z" transform="translate(-25.12 -23.48)"/><path class="cls-1" d="M118.33,77.28c-.12,9.38-8.45,17.71-17.77,17.17C89.48,93.81,84,86.13,83.35,77.12,82.75,68.29,92,59.51,101,59.53,110.16,59.54,118.44,68,118.33,77.28Z" transform="translate(-25.12 -23.48)"/></svg>