<svg id="Layer_1" data-name="Layer 1" xmlns="http://www.w3.org/2000/svg" viewBox="0 0 164 145"><defs><style>.cls-1{fill:#fefefe;}.cls-2{fill:#36b244;}.cls-3{fill:#44b350;}.cls-4{fill:#37b145;}.cls-5{fill:#39b146;}.cls-6{fill:#45b351;}</style></defs><path class="cls-1" d="M21,161V16H185V161Z" transform="translate(-20.97 -15.98)"/><path class="cls-2" d="M137.37,139.3c0,2.31,0,3.95,0,5.59-.14,6.54-2.91,9.31-9.35,9.32q-21.86,0-43.7,0c-7.28,0-14.59-.38-21.84.11-6.3.43-9.95-4.33-9.87-10.06.31-22,.13-44.05.13-66.08,0-10.27,0-20.54,0-30.81,0-6.22,3.19-9.42,9.35-9.56,1.32,0,2.63-.1,3.94-.18.13,0,.25-.2.74-.62,0-1.46-.11-3.26,0-5,.41-5.82,3.79-9.07,9.54-9.08q33,0,66,0c6.23,0,9,2.73,9,9q.07,49.18,0,98.38c0,6.28-2.79,8.89-9.09,9C140.84,139.31,139.38,139.3,137.37,139.3Z" transform="translate(-20.97 -15.98)"/><path class="cls-1" d="M133.28,56.71v86.15c0,1.16.09,2.33,0,3.48a4.1,4.1,0,0,1-3.83,3.87,19.74,19.74,0,0,1-3,0H63.84c-5.91,0-7.12-1.24-7.12-7.29q0-47,0-94c0-5.34,1.36-7.13,5.87-7.15,18-.07,36.08,0,54.38,0,.84,3.5.3,7,.41,10.35.15,4.18.39,4.5,4.56,4.55C125.55,56.74,129.16,56.71,133.28,56.71Z" transform="translate(-20.97 -15.98)"/><path class="cls-1" d="M71.49,37.82c0-2.59-.09-4.57,0-6.53.17-2.77,1.56-4.13,4.31-4.4.82-.08,1.66,0,2.49,0H140.4c6,0,7.58,1.49,7.58,7.57q0,46.71,0,93.43a10,10,0,0,1-.66,4.37c-.83,1.79-2.06,3-4.1,3.05-1.79,0-3.59,0-5.22,0-1-1.71-.63-3.22-.63-4.66,0-24.19-.08-48.37.05-72.56,0-3.43-.82-5.93-3.53-8.13a122.78,122.78,0,0,1-10.25-9.37,8.85,8.85,0,0,0-7-2.83c-13.25.13-26.49.06-39.74.06Z" transform="translate(-20.97 -15.98)"/><path class="cls-1" d="M121.79,44.85l7.64,7.06c-.49.36-.6.51-.72.52C121.26,53.12,121.26,53.12,121.79,44.85Z" transform="translate(-20.97 -15.98)"/><path class="cls-3" d="M94.72,87.52c-8.09,0-16.18.06-24.27,0-2.08,0-4.92,1.16-5.72-2.16-.42-1.75,1.38-2.48,6-2.48q13.13,0,26.25,0c7.43,0,14.86,0,22.29,0a10.81,10.81,0,0,1,4.4.43c1,.42,1.74.87,1.63,2.11a2.21,2.21,0,0,1-1.88,2,17.19,17.19,0,0,1-3.45.12Z" transform="translate(-20.97 -15.98)"/><path class="cls-4" d="M95.05,102.42h25.26c1.16,0,2.31,0,3.46.1a1.5,1.5,0,0,1,1.51,1.6,1.85,1.85,0,0,1-1.19,2,9.38,9.38,0,0,1-2.9.35q-26.25,0-52.51,0c-.49,0-1,0-1.48,0-1.55-.08-2.55-.81-2.47-2.44s1.45-1.56,2.58-1.57c5.61,0,11.23,0,16.84,0Z" transform="translate(-20.97 -15.98)"/><path class="cls-5" d="M95,120.27h25.27c1,0,2,0,3,0s2,.31,2.06,1.61a2.19,2.19,0,0,1-2,2.37,14.63,14.63,0,0,1-2.48.06h-53c-1.66,0-3.07-.43-3-2.4s1.75-1.65,3-1.65C76.8,120.25,85.89,120.27,95,120.27Z" transform="translate(-20.97 -15.98)"/><path class="cls-6" d="M84.85,65.7H99.71c.82,0,1.65.06,2.47,0A2.44,2.44,0,0,1,105,67.88c.16,1.56-1.34,2.1-2.6,2.48a7.18,7.18,0,0,1-2,0H69.72a8.25,8.25,0,0,1-3.4-.47c-1-.42-1.75-.86-1.64-2.1a2.2,2.2,0,0,1,1.86-2,13.14,13.14,0,0,1,2.95-.12C74.61,65.69,79.73,65.7,84.85,65.7Z" transform="translate(-20.97 -15.98)"/></svg>