<svg id="Layer_1" data-name="Layer 1" xmlns="http://www.w3.org/2000/svg" viewBox="0 0 164 145"><defs><style>.cls-1{fill:#fefefe;}.cls-2{fill:#36b444;}.cls-3{fill:#fcfdfc;}.cls-4{fill:#fbfdfc;}.cls-5{fill:#f8fcf8;}</style></defs><path class="cls-1" d="M20.48,166V21h164V166Z" transform="translate(-20.48 -20.98)"/><path class="cls-2" d="M55,109.33,46.82,98.75c-3,2.94-6,2.08-9.13-.12-2.83-2-5.81-3.8-8.74-5.67-4.46-2.84-5-4.79-2.26-9.15C30.19,78.2,33.74,72.63,37.26,67c3.08-4.89,6.12-9.81,9.25-14.67,2.8-4.35,4.63-4.74,8.94-2,3.64,2.28,7.25,4.62,10.89,6.9,2.62,1.64,3.51,3.82,2.28,6.8,3.85,3.68,9.06,3.15,13.74,4.23a1.87,1.87,0,0,0,1.37-.41c5.1-4,11.45-3.79,17.31-5.18,8.44-2,16.7-.47,24.91,1.52a16.31,16.31,0,0,0,7.34.46c1.36-.28,2.32-.76,1.68-2.68-.85-2.55.5-4.44,2.65-5.82,4-2.58,8-5.28,12.11-7.74,2.78-1.67,5.39-1,7.17,1.76q10.57,16.49,21,33.08c2.18,3.5,1.64,5.58-1.81,7.93-3.68,2.51-7.49,4.85-11.25,7.26-1.13.72-2.45,1.62-3.68,1.06-2.87-1.32-4.26.65-5.91,2.21-1,.9-1.87,1.88-2.88,2.74-2.29,2-3.84,3.91-3.86,7.46a7.46,7.46,0,0,1-6.89,7.77,3.17,3.17,0,0,0-3,2.62,7,7,0,0,1-5.49,5.15c-2.22.48-3.73,1.36-4.39,3.94-.79,3.15-3.42,4.68-6.63,5.09-1.26.17-2.53-.15-3.65,1-4.11,4.4-9.44,4.46-14.74,3.38-2.9-.59-6-.05-8.75-1.47-1-.53-1.75.38-2.59.93-4.25,2.82-6,2.7-10.14-.67-.94-.76-1.59-1.48-3-.87-3.58,1.54-6-.62-8.19-3-1-1.05-1.31-2-3.29-1.63-3.86.65-7.06-1.5-8.29-5.46a4.57,4.57,0,0,0-3.1-3.29c-5.48-2.23-7.06-6.88-4.1-11.94C53.05,112.1,54,110.76,55,109.33Z" transform="translate(-20.48 -20.98)"/><path class="cls-1" d="M115.64,134.81a9.53,9.53,0,0,1-6.87,2.57,20.08,20.08,0,0,1-3.47-.17c-3-.43-6.08-.94-8.91-1.38-.49-1.09.17-1.52.44-2.08,2.25-4.74,1.39-7.8-3.17-10.24-1-.54-1.69-.85-1.46-2.06.92-4.89-1.79-7.41-6-8.75a2.46,2.46,0,0,1-2-2.22c-1.38-6.52-6.93-8.54-12.17-4.54a14.7,14.7,0,0,0-1.56,1.7c-3.88-4.07-8.08-5.93-12.84-1.21L48.57,94.31,65.63,67.38c4.65,2.69,9.25,4.38,14.65,4.32-1,2.78-2.71,4.53-4.19,6.43-.81,1-1.63,2.08-2.38,3.17-2.14,3.15-2.2,5.85-.23,8.15s4.67,2.94,8,1.25c5-2.5,10-5,14.88-7.85,3.39-2,5.93-1.79,9.3.52,11.17,7.64,22.67,14.8,34,22.16a29.92,29.92,0,0,1,2.85,2c2.19,1.82,2.69,4,1.48,6.09-1.41,2.38-4.08,3.12-6.81,1.64s-5.12-3-7.67-4.56c-3.81-2.31-7.59-4.67-11.44-6.93-1-.57-1.88-1.39-3.15-1.31a2,2,0,0,0-1.6,1c-.51.76,0,1.35.48,1.69,1.61,1.16,3.27,2.24,5,3.26,4.24,2.56,8.54,5,12.77,7.59,3.24,2,4,3.71,2.88,5.83s-4.16,3-7,1.64c-3.85-1.86-7.55-4-11.32-6.07-1.74-1-3.44-2-5.24-2.8-1-.48-2.36-.65-2.91.82-.44,1.17.41,1.78,1.35,2.28,3.47,1.9,7,3.8,10.4,5.73A43.23,43.23,0,0,1,124,126c1.09.78,2,1.78,1.39,3.35-.59,1.41-1.33,2.7-3,3a7.41,7.41,0,0,1-5.25-.82c-3.63-1.95-7.37-3.7-11.06-5.55-1.1-.55-2.25-1-3,.35s.23,2.19,1.32,2.75C108.1,131,111.78,132.85,115.64,134.81Z" transform="translate(-20.48 -20.98)"/><path class="cls-1" d="M138.65,66.66c6,9.59,11.92,18.91,17.87,28.34a101.79,101.79,0,0,1-11,10.13c-13.11-8.54-26.24-17-39.26-25.64-3.43-2.28-6.54-2.49-10.11-.43-4.56,2.63-9.29,5-13.95,7.44-.87.46-1.82.8-2.67,1.29a2.54,2.54,0,0,1-3.42-3.42A18,18,0,0,1,78,81.46c.67-.94,1.41-1.83,2.13-2.74,8.82-11.19,5.33-8.73,20.15-12,8.45-1.86,16.75-.83,24.92,1.29A17.8,17.8,0,0,0,138.65,66.66Z" transform="translate(-20.48 -20.98)"/><path class="cls-1" d="M175.51,86.83l-14.18,9.09L138.79,60.16l14.09-9.06Z" transform="translate(-20.48 -20.98)"/><path class="cls-1" d="M28.79,87.93l22.29-35.3c5,2.37,9.31,5.68,14.12,8.69L42.73,96.92C37.93,94,33.35,91.46,28.79,87.93Z" transform="translate(-20.48 -20.98)"/><path class="cls-3" d="M67.05,130.36a3.88,3.88,0,0,1-3.93-4.59,7.64,7.64,0,0,1,1.2-2.67c2.83-4.26,5.72-8.49,8.61-12.71a9.31,9.31,0,0,1,1.6-1.88,3.63,3.63,0,0,1,5-.15c1.61,1.32,2.23,3.11,1.08,4.84-3.53,5.39-7.24,10.66-10.92,16A2.93,2.93,0,0,1,67.05,130.36Z" transform="translate(-20.48 -20.98)"/><path class="cls-4" d="M77.65,135.26c-3.14,0-5.33-3.45-3.73-5.91,2.4-3.72,4.93-7.38,7.57-10.94,1.83-2.46,4-2.81,5.91-1.32s2.08,3.53.35,6.06c-2.13,3.13-4.28,6.23-6.43,9.34C80.37,133.86,79.3,135.09,77.65,135.26Z" transform="translate(-20.48 -20.98)"/><path class="cls-4" d="M63.25,107.42a3.72,3.72,0,0,1,3.61,5.41,61.94,61.94,0,0,1-5.58,8,3,3,0,0,1-4.34.73c-1.94-1.31-2.84-3.1-1.77-4.94,1.63-2.81,3.59-5.44,5.47-8.1A3,3,0,0,1,63.25,107.42Z" transform="translate(-20.48 -20.98)"/><path class="cls-5" d="M94.59,129.91c-.09,1.61-4.62,7.77-6.09,8.24a2.78,2.78,0,0,1-3.12-.89c-.79-.88-1.55-1.76-.77-3.06a34.52,34.52,0,0,1,4.82-6.85,2.54,2.54,0,0,1,3.15-.61C93.91,127.4,94.27,128.66,94.59,129.91Z" transform="translate(-20.48 -20.98)"/></svg>