<svg id="Layer_1" data-name="Layer 1" xmlns="http://www.w3.org/2000/svg" viewBox="0 0 164 145"><defs><style>.cls-1{fill:#fefefe;}.cls-2{fill:#36b444;}.cls-3{fill:#37b545;}.cls-4{fill:#fdfefd;}</style></defs><ellipse class="cls-1" cx="82" cy="72.5" rx="115.97" ry="102.53"/><path class="cls-2" d="M94.89,144.53c-16.07,0-32.15-.31-48.2.13a13.34,13.34,0,0,1-13.93-13.78q.59-27.55,0-55.12A13.42,13.42,0,0,1,46.68,62c32.3.31,64.6.23,96.9,0,6.66,0,11.71,3.89,13.2,9.07a13.8,13.8,0,0,1,.34,3.93c0,18.87-.18,37.74.11,56.61a13.06,13.06,0,0,1-13.14,13C127.69,144.32,111.29,144.53,94.89,144.53Z" transform="translate(-20.96 -15.42)"/><path class="cls-3" d="M55.33,50.33a21.93,21.93,0,0,0-1.64,6.59c-.31,3-.42,3-4.49,2.92.9-5.48,1.68-11,2.72-16.36C53.46,35.55,60.19,31.09,68,32.55q18.18,3.39,36.39,6.67,21.36,3.9,42.72,7.76c5.82,1.06,11.69,1.9,17.48,3.14,7.57,1.61,11.55,8,10.18,15.5-2.64,14.39-5.18,28.8-7.75,43.19-.7,3.89-1.24,7.8-2.1,11.65-.76,3.4-1.95,6.66-5.51,8.72a13,13,0,0,1,.54-6.61,136.28,136.28,0,0,0,3-13.46c1.33-7.1,2.43-14.25,3.79-21.36.38-2-.09-2.75-2-3-1.47-.18-2.9-.65-4.35-.93-1.08-.21-1.21-1-1.17-1.83,0-1.11.8-1.21,1.71-1.21,2.16,0,4.12,1.36,6.68.8.51-3.17,2-6.32,1.41-9.77-3.72-2.26-9.45.16-12.15-5.53,4.69,0,8.53,1.88,12.61,1.72,3.47-7.4,1-12.73-6.86-14.43-6.26-1.35-12.62-2.28-18.94-3.4Q125.43,47,107.21,43.7c-10.37-1.83-20.74-3.62-31.1-5.46a72.07,72.07,0,0,1-7.74-1.54c-6.74-2-13.1,2.43-12.38,10.59,20.4,3.31,40.59,8.29,60.85,12.16a51.25,51.25,0,0,1-11.54.62Z" transform="translate(-20.96 -15.42)"/><path class="cls-1" d="M153.15,96.13c0,12.36.08,24.41,0,36.46-.05,4.87-3.24,7.87-8.23,7.94-7.28.1-14.57,0-21.85,0h-75c-1.15,0-2.32.06-3.47,0-4.37-.29-7.61-3.19-7.66-7.51-.15-12.21-.06-24.42-.06-36.9Z" transform="translate(-20.96 -15.42)"/><path class="cls-1" d="M153.15,78.86H37.22a12.58,12.58,0,0,1-.3-5.37,7.73,7.73,0,0,1,7.29-7.38c1.15-.11,2.31,0,3.47,0h94.8c1,0,2-.06,3,0a7.83,7.83,0,0,1,7.67,7.55C153.24,75.25,153.15,76.88,153.15,78.86Z" transform="translate(-20.96 -15.42)"/><path class="cls-4" d="M37.08,92.37V82.11H153V92.37Z" transform="translate(-20.96 -15.42)"/></svg>