<svg id="Layer_1" data-name="Layer 1" xmlns="http://www.w3.org/2000/svg" viewBox="0 0 190 171"><defs><style>.cls-1{fill:#fefefe;}.cls-2{fill:#36b444;}.cls-3{fill:#37b545;}</style></defs><ellipse class="cls-1" cx="95" cy="85.5" rx="134.35" ry="120.92"/><path class="cls-2" d="M72.74,56.41V35c0-1.83-.08-3.65,0-5.47.24-4.67,1.71-6.23,6.39-6.4a121.06,121.06,0,0,0,14.34-1,76.32,76.32,0,0,0,19.91-5.87,11.4,11.4,0,0,1,10,0,77.86,77.86,0,0,0,32.75,6.83c6.42,0,7.79,1.43,7.8,8,0,13.25-.21,26.51.07,39.76.28,13.75-5,25-14.2,34.85a111.9,111.9,0,0,1-24.49,19.32c-1.71,1-3.41,1.9-4.29,3.92-5.41,12.41-14.85,21.35-25.48,29.23a143.76,143.76,0,0,1-13.37,8.57c-2.21,1.29-4.34,1.58-6.57.3-13.3-7.65-25.69-16.32-34.6-29.23A45,45,0,0,1,33,111.78q-.11-20.62,0-41.26c0-6.09,1.51-7.61,7.68-7.59A77.69,77.69,0,0,0,72.74,56.41Z" transform="translate(-1.96 -5.06)"/><path class="cls-1" d="M119.62,66.86c1,2.48.56,4.48.56,6.43,0,12.25-.27,24.51.11,36.75s-4,22.63-12,31.6c-7.79,8.73-17.18,15.48-27.29,21.28-1.35.78-2.47,1.3-4.08.36-12.1-7.05-23.38-15.05-31.78-26.53-4.91-6.72-7.92-14.22-8.05-22.52C36.81,98.69,37,83.14,37,67.84c1.15-1.27,2.38-1,3.49-.94,12.12.26,23.62-2.45,34.71-7.12,1.89-.79,3.63-1.42,5.69-.51A85,85,0,0,0,119.62,66.86Z" transform="translate(-1.96 -5.06)"/><path class="cls-1" d="M87.51,57.43c-3.72-.77-6.64-3.12-10.52-2.72V27.83c.87-1,2.11-.72,3.22-.7,12.12.28,23.63-2.43,34.72-7.11,2.08-.87,3.92-1.31,6.15-.34,12.14,5.3,24.81,8.08,37.86,7.39,1.61,1.44,1,3,1,4.44,0,12.76-.29,25.52.12,38.26.38,12.11-3.62,22.38-11.4,31.35a100.33,100.33,0,0,1-24.46,19.95c0-4.11,0-8.09,0-12.06,0-2.11,1.86-2.57,3.17-3.45,6.93-4.65,13.08-10.11,17.75-17.1a23.1,23.1,0,0,0,4-13.07q.06-15.15,0-30.31c0-4.94-1.24-6-6-6.48-7.21-.68-14.47-1.23-21.08-4.7a7.38,7.38,0,0,0-7.16-.09c-6.75,3.55-14.16,4.15-21.55,4.79-4.53.4-5.72,1.55-5.81,6.21C87.45,48.94,87.51,53.07,87.51,57.43Z" transform="translate(-1.96 -5.06)"/><path class="cls-1" d="M124.2,102.56c0-9.8-.08-19,0-28.23.1-9.49.33-11.8-11.34-11.51-7.1.17-14.08-1.36-21.1-3.62-.64-5.41-.12-10.79-.3-16.39,6.83-.36,13.22-1,19.35-3.05a34.25,34.25,0,0,0,5.06-2c1.42-.75,2.76-1.17,4.23-.4,7.68,4,16,5,24.47,5.42,1,1.37.58,2.92.59,4.36,0,8.6-.17,17.21.09,25.81a23.65,23.65,0,0,1-5.13,15.67A52.34,52.34,0,0,1,124.2,102.56Z" transform="translate(-1.96 -5.06)"/><path class="cls-3" d="M109.3,99.65c0,4-.08,8,0,11.93a29.43,29.43,0,0,1-7.19,20,72.71,72.71,0,0,1-20.3,16.53c-1.86,1.06-3.76,1.47-5.66.38-10.32-5.91-19.72-12.8-25.42-23.69a26,26,0,0,1-2.88-11.92q-.16-13.67,0-27.33c.06-5.42,1.75-7.12,7.24-6.93a44.2,44.2,0,0,0,18.77-3.79,11.52,11.52,0,0,1,9.56,0,45,45,0,0,0,18.77,3.72c5.4-.1,7,1.57,7.1,7.1C109.37,90.38,109.3,95,109.3,99.65Z" transform="translate(-1.96 -5.06)"/><path class="cls-1" d="M52,83.08c3.69-.25,7.15-.27,10.55-.76a47.91,47.91,0,0,0,13.3-3.87c1.43-.66,2.85-1.2,4.28-.53a51.41,51.41,0,0,0,24.21,4.89c1.42,1.43.93,2.83.94,4.09,0,8.11-.13,16.23.06,24.34.18,7.4-2.63,13.54-7.28,19-4.89,5.73-11,10-17.35,13.95-1.4.85-2.5,1.11-4,.14-6.35-4-12.5-8.14-17.41-13.89s-7.71-12.2-7.5-19.94,0-15.57.06-23.35C51.83,85.86,51.94,84.58,52,83.08Z" transform="translate(-1.96 -5.06)"/></svg>