<svg id="Layer_1" data-name="Layer 1" xmlns="http://www.w3.org/2000/svg" viewBox="0 0 190 171"><defs><style>.cls-1{fill:#fefefe;}.cls-2{fill:#38b546;}.cls-3{fill:#fdfefd;}.cls-4{fill:#3bb649;}.cls-5{fill:#54c060;}.cls-6{fill:#41b94e;}.cls-7{fill:#45ba51;}.cls-8{fill:#40b84d;}.cls-9{fill:#3eb74b;}.cls-10{fill:#3db74a;}</style></defs><ellipse class="cls-1" cx="95" cy="85.5" rx="134.35" ry="120.92"/><path class="cls-2" d="M75,28.18c2.6-2.29.9-5,2.27-7.25,4.1-.66,8.39-.25,12.65-.27a5.54,5.54,0,0,0,5-2.47c5.23-6.92,13.58-7,18.83-.19a6.25,6.25,0,0,0,5.88,2.66c3.94-.16,7.9,0,11.56,0,.48.66.81.91.84,1.19.8,6.48.79,6.45,7.52,6.35,3.14-.05,6.29-.07,9.43,0,6.51.22,9.4,3.07,9.31,9.58-.24,18.37-.61,36.74-.95,55.1q-.53,28.55-1.1,57.1c-.16,8.23-2.8,10.79-11.16,10.79h-84c-8,0-10.8-2.66-10.82-10.65q-.09-55.62,0-111.24c0-7.82,3.07-10.62,11-10.69C66.06,28.14,70.83,28.18,75,28.18Z" transform="translate(-9.16 -1.7)"/><path class="cls-1" d="M75.85,31.68c1.56,3.12.21,6.07,1.3,9.19H131.5c1.91-2.49-.14-5.78,1.78-9.27a73.94,73.94,0,0,1,18.06.18c2.93.47,4.12,3.48,4,6.66q-.41,10.43-.6,20.85-.77,44.46-1.48,88.91c-.12,7.85-1.92,9.73-9.6,9.73h-81c-7.5,0-9-1.49-9-9q0-54.39,0-108.8c0-7.21,1.56-8.84,8.7-8.75C66.79,31.4,71.26,31,75.85,31.68Z" transform="translate(-9.16 -1.7)"/><path class="cls-3" d="M79.79,37.82V23.71H95.14c3.59-9.74,14.22-10.19,18.66-.17h15V37.82Z" transform="translate(-9.16 -1.7)"/><path class="cls-4" d="M93,83.5h50.23c.06,3.42-2.23,2.66-3.81,2.67-9.11.06-18.22,0-27.33,0-5.3,0-10.6,0-15.89,0C94.74,86.15,92.61,86.74,93,83.5Z" transform="translate(-9.16 -1.7)"/><path class="cls-5" d="M93,107.84c-.33-2.79,1.13-2.78,2.46-2.78q22.57,0,45.16,0c1.54,0,3.16,0,2.55,2.79Z" transform="translate(-9.16 -1.7)"/><path class="cls-6" d="M143.23,63.12H93c-.36-2.48,1-2.65,2.39-2.65q22.58,0,45.17,0C141.93,60.47,143.34,60.55,143.23,63.12Z" transform="translate(-9.16 -1.7)"/><path class="cls-7" d="M92.83,128.07h50.51c-.25,3.63-2.76,2.69-4.44,2.7-10.25.09-20.49,0-30.74,0-4,0-7.94,0-11.9,0C94.87,130.77,93.12,131.17,92.83,128.07Z" transform="translate(-9.16 -1.7)"/><path class="cls-8" d="M64.91,130.63c2.88-2.69,4,.5,5.82.5,4.6-1.78,6.6-7.62,12.45-7.71-2.74,5.29-7.37,8.69-11.68,12.43A10.89,10.89,0,0,1,64.91,130.63Z" transform="translate(-9.16 -1.7)"/><path class="cls-9" d="M82.43,55.43c1.63,2.52.06,3.55-1.09,4.64-2.17,2-4.39,4.05-6.6,6-4.11,3.68-7,2.76-9.22-2.92,2.47-.56,2.47-.56,5.56,1C75.13,61.72,77.61,57,82.43,55.43Z" transform="translate(-9.16 -1.7)"/><path class="cls-10" d="M65.36,107.76c2.63-2,3.76.92,5.51,1.09,4.26-2.41,6.66-7.29,11.37-8.89,1.83,2.06.66,3.17-.42,4.2-2.16,2-4.39,4-6.59,6C70.61,114.4,68.39,113.89,65.36,107.76Z" transform="translate(-9.16 -1.7)"/><path class="cls-10" d="M83.14,78c-.87,4-6.06,9.45-12.14,13.21-2.51-1-4.78-2.4-5.79-5.22,2.55-2.68,3.85.76,5.68.82C75.21,84.49,77.45,79.19,83.14,78Z" transform="translate(-9.16 -1.7)"/></svg>