<svg id="Layer_1" data-name="Layer 1" xmlns="http://www.w3.org/2000/svg" viewBox="0 0 172 159"><defs><style>.cls-1{fill:#fefefe;}.cls-2{fill:#42b34f;}.cls-3{fill:#4cb85f;}.cls-4{fill:#40b34f;}.cls-5{fill:#4db75a;}.cls-6{fill:#3eb543;}.cls-7{fill:#44b350;}.cls-8{fill:#3fb650;}.cls-9{fill:#40b550;}.cls-10{fill:#50ad57;}.cls-11{fill:#56b660;}.cls-12{fill:#49b153;}.cls-13{fill:#e2f6e1;}.cls-14{fill:#f7f9f7;}.cls-15{fill:#ebf7ed;}</style></defs><path class="cls-1" d="M97.92,6.81c27.65,0,55.29,0,82.94-.07,2.5,0,3.06.56,3.06,3.06q-.12,76.44,0,152.88c0,2.5-.56,3.06-3.06,3.06q-82.94-.12-165.88,0c-2.5,0-3.06-.56-3.06-3.06Q12,86.24,11.92,9.8c0-2.5.56-3.07,3.06-3.06C42.63,6.84,70.27,6.81,97.92,6.81Z" transform="translate(-11.92 -6.74)"/><path class="cls-2" d="M53.18,33.91c1.9-.45,3.06.62,4.29,1.85q29.91,30,59.87,60c3.22,3.23,4.92,7.46,7.36,11.2s4.5,7.38,6.71,11.09c.58,1,1.5,2,.6,3.17-1.1,1.42-2.51.69-3.59,0-11.21-7-22.69-13.41-31.88-23.4-12-13.06-25-25.27-37.49-37.85C54.48,55.41,50,50.75,45.3,46.3c-2.54-2.41-1.19-4,.61-5.78.64-.6,1.31-1.17,1.93-1.81l.07,0a4.62,4.62,0,0,0,1-.89v0a4.5,4.5,0,0,1,3-2.94h0A2.64,2.64,0,0,1,53.18,33.91Z" transform="translate(-11.92 -6.74)"/><path class="cls-3" d="M104.4,145.51q-16.22,0-32.44,0c-1.17,0-2.33,0-3.49-.07a2.12,2.12,0,0,1-2.24-2.19,2.24,2.24,0,0,1,2.13-2.34,21.24,21.24,0,0,1,3-.12c22.29,0,44.59,0,66.88.07,2.05,0,5.53-1.17,5.4,2.42-.1,2.78-3.23,2.16-5.28,2.16-11.32,0-22.63,0-33.95,0Z" transform="translate(-11.92 -6.74)"/><path class="cls-4" d="M130.93,60.82c-12.3,0-24.61,0-36.91,0-1.92,0-5.13.95-4.85-2.41.22-2.64,3.18-1.73,5-1.73,24.27-.07,48.55,0,72.83,0,.83,0,1.66,0,2.49,0,1.28,0,2.32.44,2.41,1.92.11,1.79-1,2.27-2.54,2.27H130.93Z" transform="translate(-11.92 -6.74)"/><path class="cls-5" d="M79.46,119.74H106.4c1.33,0,2.66,0,4,.12a1.81,1.81,0,0,1,1.78,2c0,1.09-.33,2.07-1.46,2.3a20,20,0,0,1-4,.34c-18.45,0-36.9.05-55.36,0-2,0-5.14.9-5.22-2.18-.1-3.56,3.28-2.49,5.36-2.51C60.84,119.68,70.15,119.74,79.46,119.74Z" transform="translate(-11.92 -6.74)"/><path class="cls-6" d="M141.39,77.72h25.42a21.26,21.26,0,0,1,3,.06,2.11,2.11,0,0,1,1.95,2.43c-.07,1.34-1.08,1.5-2.11,1.55s-2,.06-3,.06q-25.68,0-51.35,0a19.9,19.9,0,0,1-3.94-.33,1.66,1.66,0,0,1-1.31-1.86,1.75,1.75,0,0,1,1.46-1.76,22.1,22.1,0,0,1,3.46-.19q13.22,0,26.42,0Z" transform="translate(-11.92 -6.74)"/><path class="cls-7" d="M42.91,38.75a6.29,6.29,0,0,1-7.09-2c-2.17-2.48-4.73-4.6-7-7s-2.4-4.65-.13-6.47c1.83-1.47,3.21-3.31,5-4.81,2.53-2.17,4-2.28,6.42.07a97.39,97.39,0,0,1,10,10.31,2.77,2.77,0,0,1-.12,3h0a8.17,8.17,0,0,1-3.94,4l0,0a5.62,5.62,0,0,0-1,1l0,0a8.25,8.25,0,0,0-1,1l0,0Z" transform="translate(-11.92 -6.74)"/><path class="cls-8" d="M63.41,103c-7,0-13.94,0-20.91,0-1.38,0-3.29.48-3.37-1.82s1.73-2.4,3.47-2.39q21.4,0,42.81,0c1.56,0,3.19,0,3.15,2.14s-1.71,2.07-3.25,2.07H63.41Z" transform="translate(-11.92 -6.74)"/><path class="cls-9" d="M150.33,103c-6.13,0-12.26,0-18.4,0-1.28,0-2.85.18-3-1.73s1.15-2.49,2.85-2.49l36.8,0c1.5,0,3.13-.07,3.24,2.11.13,2.4-1.69,2-3.09,2.06-6.13,0-12.26,0-18.4,0Z" transform="translate(-11.92 -6.74)"/><path class="cls-10" d="M53,77.65H65.48c1.6,0,3.21.28,3.17,2.26,0,1.79-1.63,1.87-3,1.87q-12.48.08-25,0c-1.31,0-2.82-.08-2.84-2,0-2.22,1.62-2.16,3.15-2.16,4,0,8,0,12,0Z" transform="translate(-11.92 -6.74)"/><path class="cls-11" d="M150.92,119.71c2.65,0,5.3,0,8,0,1.75,0,4.09-.33,4,2.39s-2.45,2.31-4.15,2.37c-3.48.13-7,0-10.43,0-2.49,0-5,.07-7.45-.09-1.32-.08-2.86-.55-2.91-2.16-.06-1.87,1.48-2.46,3.06-2.5,3.31-.08,6.62,0,9.93,0Z" transform="translate(-11.92 -6.74)"/><path class="cls-12" d="M44.41,60.79c-1.49,0-3,.06-4.46,0a1.94,1.94,0,0,1-2.07-2.23,1.78,1.78,0,0,1,1.86-1.87q4.71-.07,9.41,0a1.72,1.72,0,0,1,1.79,1.91,1.86,1.86,0,0,1-2.08,2.16c-1.48,0-3,0-4.45,0Z" transform="translate(-11.92 -6.74)"/><path class="cls-13" d="M46,35.82a15.57,15.57,0,0,1,3.94-4,3,3,0,0,0,2,3,6,6,0,0,1-3,2.94A2.76,2.76,0,0,0,46,35.82Z" transform="translate(-11.92 -6.74)"/><path class="cls-13" d="M50,31.78l.12-3C51.34,29.84,51.34,30.84,50,31.78Z" transform="translate(-11.92 -6.74)"/><path class="cls-13" d="M47.84,38.71a2.89,2.89,0,0,1-1.93,1.81C45.93,39.25,46.63,38.72,47.84,38.71Z" transform="translate(-11.92 -6.74)"/><path class="cls-13" d="M53.18,33.91a1.43,1.43,0,0,1-1.2.91A1,1,0,0,1,53.18,33.91Z" transform="translate(-11.92 -6.74)"/><path class="cls-13" d="M45,36.8a1,1,0,0,1,1-1A1.12,1.12,0,0,1,45,36.8Z" transform="translate(-11.92 -6.74)"/><path class="cls-13" d="M44,37.79a1,1,0,0,1,1-1A1.09,1.09,0,0,1,44,37.79Z" transform="translate(-11.92 -6.74)"/><path class="cls-13" d="M42.91,38.75A1.29,1.29,0,0,1,44,37.81,1.1,1.1,0,0,1,42.91,38.75Z" transform="translate(-11.92 -6.74)"/><path class="cls-13" d="M48.94,37.78a.92.92,0,0,1-1,.89A1.17,1.17,0,0,1,48.94,37.78Z" transform="translate(-11.92 -6.74)"/><path class="cls-14" d="M119.87,107.5c-.4,2.51-1.68,2.18-3,1.5a35.25,35.25,0,0,1-8.79-6.46Q96.5,90.84,84.85,79.19,68.62,62.95,52.37,46.73c-2.83-2.83-2.7-3.39,0-5.91,2.31-2.16,3.44-.42,4.86,1q16.91,17,33.84,33.9c7.63,7.67,15.17,15.42,22.82,23.07C116.52,101.44,118.12,104.68,119.87,107.5Z" transform="translate(-11.92 -6.74)"/><path class="cls-15" d="M43.83,29.49a4.09,4.09,0,0,1-2.29,3.56,2.49,2.49,0,0,1-3.16-.46,36.31,36.31,0,0,1-4.11-4.31,3.33,3.33,0,0,1,.49-4.54,3,3,0,0,1,4.46.08C40.83,25.63,43.43,26.68,43.83,29.49Z" transform="translate(-11.92 -6.74)"/></svg>