<svg id="Layer_1" data-name="Layer 1" xmlns="http://www.w3.org/2000/svg" viewBox="0 0 172 159"><defs><style>.cls-1{fill:#fefefe;}.cls-2{fill:#34b442;}.cls-3{fill:#36b544;}.cls-4{fill:#38b546;}.cls-5{fill:#fdfefd;}.cls-6{fill:#fcfdfc;}</style></defs><ellipse class="cls-1" cx="86" cy="79.5" rx="121.62" ry="112.43"/><path class="cls-2" d="M34.44,87.39c-1.09-36.84,30.3-68,67.94-67,39.4,1,66.84,32.77,65.8,68.56-1.11,37.92-32.13,67.13-68.85,65.59C56,152.71,32.7,115.92,34.44,87.39Z" transform="translate(-14.58 -7.84)"/><path class="cls-1" d="M164.69,87.29a63,63,0,0,1-63.15,63.6C65.9,151,37.63,123,37.59,87.55a63.55,63.55,0,1,1,127.1-.26Z" transform="translate(-14.58 -7.84)"/><path class="cls-3" d="M101.63,115.78c-2.29,6.77-4.34,13-6.54,19.23-1.76,5-6.24,7.4-10.88,6.12-5.07-1.4-7.58-5.66-6.33-11.13,1.33-5.79,2.5-11.65,4.33-17.29,3.19-9.81,3.14-19.81,2.65-30.31C78.15,80,71.33,77.59,64.52,75.13,58.2,72.84,55.36,68.3,57,63.2c1.88-5.74,6.45-7.79,13.14-5.85a26.54,26.54,0,0,1,4.23,1.4c12.26,6,25.4,5.36,38.42,4.77,5.93-.28,11.29-3.52,17-5.14,1.75-.49,3.43-1.24,5.19-1.64,4.66-1.07,9.41,1.32,10.55,5.19,1.66,5.67-.17,10.57-5,12.46-6.15,2.4-12.35,4.72-18.66,6.63-3,.92-3.46,2.46-3.72,5.3-1.35,14.91,3.67,28.72,7,42.81,1.34,5.65-.68,10.25-5.66,11.88s-9.61-.88-11.58-6.46C105.78,128.49,103.83,122.36,101.63,115.78Z" transform="translate(-14.58 -7.84)"/><path class="cls-4" d="M88,47.9c0-7.23,6.44-13.82,13.51-13.9,7.34-.08,13.74,6.63,13.58,14.23a13.88,13.88,0,0,1-13.44,13.25C94.51,61.55,88,55.06,88,47.9Z" transform="translate(-14.58 -7.84)"/><path class="cls-1" d="M141.81,65.92c.66,3-1.22,4.43-4.06,5.39-6.26,2.11-12.45,4.44-18.72,6.52-3.38,1.11-4.64,2.86-5,6.74-1.28,15.76,3.57,30.43,7.2,45.32.9,3.71.27,6.4-3.43,7.44s-5.45-1.58-6.47-4.62c-2.21-6.57-4.3-13.18-6.49-19.76-.56-1.68-.87-3.84-3.09-4.07-2.85-.3-2.83,2.41-3.43,4.1-2.21,6.22-4.24,12.5-6.29,18.78-1.15,3.52-2.61,6.93-7.18,5.41-4.13-1.38-3.77-4.76-2.81-8.26,1.27-4.62,1.93-9.43,3.5-13.94,3.5-10.06,3.62-20.4,3.53-30.84,0-3.45-1.26-4.94-4.47-5.94-6.71-2.07-13.29-4.55-19.9-6.94-2.69-1-4.59-2.81-4.34-5.85a5.12,5.12,0,0,1,3.9-4.59c2-.6,4,.29,5.5,1C83.38,68,97.7,68.32,112.15,67.6c6.87-.34,12.92-3.9,19.43-5.73a43.64,43.64,0,0,1,4.28-1.27C139.88,59.91,141.76,61.54,141.81,65.92Z" transform="translate(-14.58 -7.84)"/><path class="cls-5" d="M111.1,47.63a9.58,9.58,0,0,1-9.2,9.79A9.85,9.85,0,0,1,92,47.72c0-4.86,4.8-9.7,9.55-9.73C106.51,38,111,42.5,111.1,47.63Z" transform="translate(-14.58 -7.84)"/><path class="cls-6" d="M91.67,78.06c-9.74-5.15-20.88-5.23-29.74-12.29,2.93-3.18,6-1.5,8.64-2.46.81,2.29-.31,4.64,2.54,5.7s3.62-1.47,5.13-2.36c1.92-.28,2.92,1.62,4.76,1.43,1-.1,2.84.78,2.64,1.79-.85,4.18,2.39,4.21,4.76,5.23C91,75.35,91.64,75.6,91.67,78.06Z" transform="translate(-14.58 -7.84)"/></svg>